<svg width="16" height="16" viewBox="0 0 16 16" fill="none" xmlns="http://www.w3.org/2000/svg">
<circle cx="8" cy="8" r="7" fill="#FFFFFF" class="branding-accent" />
<path d="M8 0C3.62667 0 0 3.54362 0 7.94631C0 12.349 3.62667 16 8 16C12.3733 16 16 12.4564 16 7.94631C16 3.43624 12.3733 0 8 0ZM4.26667 4.2953C4.26667 4.08054 4.48 3.86577 4.69333 3.86577H11.3067C11.52 3.86577 11.7333 4.08054 11.7333 4.2953V5.04698H10.88C10.24 5.04698 9.70667 5.58389 9.6 6.22819H4.69333C4.48 6.22819 4.26667 6.01342 4.26667 5.69128V4.2953ZM4.26667 7.19463C4.26667 6.97987 4.48 6.7651 4.69333 6.7651H9.49333V9.12752H4.69333C4.48 9.12752 4.26667 8.91275 4.26667 8.69799V7.19463ZM11.84 11.5973C11.84 11.8121 11.6267 12.0268 11.4133 12.0268H4.69333C4.48 12.0268 4.26667 11.8121 4.26667 11.5973V10.2013C4.26667 9.98658 4.48 9.77181 4.69333 9.77181H9.6C9.81333 10.4161 10.3467 10.8456 10.9867 10.8456H11.84V11.5973V11.5973ZM12.6933 9.55705H10.9867L11.4133 9.98658L11.0933 10.3087L10.3467 9.55705L10.1333 9.2349L10.3467 9.02013L11.0933 8.16107L11.4133 8.48322L10.9867 8.91275H12.6933V9.55705V9.55705ZM12.48 6.87248L11.7333 7.73154L11.3067 7.4094L11.7333 6.87248H10.1333V6.44295H11.7333L11.3067 6.01342L11.6267 5.69128L12.3733 6.55034L12.5867 6.7651L12.48 6.87248Z" fill="#333333" class="branding-main" />
<path d="M5.65334 5.58389C5.97334 5.58389 6.18667 5.36913 6.18667 5.04698C6.18667 4.72483 5.97334 4.51007 5.65334 4.51007C5.33334 4.51007 5.12 4.72483 5.12 5.04698C5.12 5.36913 5.33334 5.58389 5.65334 5.58389Z" fill="#333333" class="branding-main" />
</svg>
