<svg width="16" height="16" viewBox="0 0 16 16" fill="none" xmlns="http://www.w3.org/2000/svg" role="img" aria-labelledby="title desc" focusable="false">
  <title id="title">Training Data: Rule-based Heuristic</title>
  <desc id="desc">This product/component has disclosed that it mainly uses rules-based heuristic.</desc>
  <circle cx="8" cy="8" r="7" fill="#FFFFFF" class="branding-accent" />
  <path fill-rule="evenodd" clip-rule="evenodd" d="M8 16C12.4183 16 16 12.4183 16 8C16 3.58172 12.4183 0 8 0C3.58172 0 0 3.58172 0 8C0 12.4183 3.58172 16 8 16ZM10 5.5C10.2368 5.5 10.3856 5.50061 10.4906 5.50943C10.4994 5.61443 10.5 5.76319 10.5 6V8H10C9.44771 8 9 8.44771 9 9V11C9 11.5523 9.44771 12 10 12H10.5V12.5H11.5V12H12C12.5523 12 13 11.5523 13 11V9C13 8.44771 12.5523 8 12 8H11.5V6L11.5 5.97469V5.97466C11.5 5.74655 11.5 5.53526 11.4813 5.36666C11.4623 5.19552 11.415 4.95786 11.2286 4.77145C11.0421 4.58503 10.8045 4.5377 10.6333 4.51868C10.4647 4.49995 10.2534 4.49997 10.0253 4.5H10.0253L10 4.5V4C10 3.44772 9.55229 3 9 3H8.5V2.5H7.5V3H7C6.44772 3 6 3.44772 6 4V6C6 6.55228 6.44772 7 7 7H7.5V9C7.5 9.23681 7.49939 9.38557 7.49057 9.49057C7.38557 9.4994 7.23681 9.5 7 9.5V9C7 8.44771 6.55228 8 6 8H4C3.44772 8 3 8.44771 3 9V11C3 11.5523 3.44772 12 4 12H6C6.55228 12 7 11.5523 7 11V10.5L7.02531 10.5C7.25343 10.5 7.46474 10.5001 7.63334 10.4813C7.80448 10.4623 8.04214 10.415 8.22855 10.2286C8.41497 10.0421 8.4623 9.80448 8.48132 9.63334C8.50005 9.46474 8.50003 9.25345 8.5 9.02534V9.02531L8.5 9V7H9C9.55229 7 10 6.55228 10 6V5.5Z" fill="#333333" class="branding-main" />
  <path d="M5.55483 9L5.03655 9.51828L4.51828 9L4 9.51828L4.51828 10.0366L4 10.5548L4.51828 11.0731L5.03655 10.5548L5.55483 11.0731L6.0731 10.5548L5.55483 10.0366L6.0731 9.51828L5.55483 9Z" fill="#333333" class="branding-main" />
  <path d="M10.7923 10.0366L10.274 9.51828L9.7557 10.0366L10.7923 11.0731L12.3472 9.51828L11.8289 9L10.7923 10.0366Z" fill="#333333" class="branding-main" />
  <path d="M7.98224 6.09949C8.58848 6.09949 9.08173 5.60624 9.08173 5C9.08173 4.39376 8.58848 3.90051 7.98224 3.90051C7.37601 3.90051 6.88275 4.39376 6.88275 5C6.88275 5.60624 7.37601 6.09949 7.98224 6.09949ZM7.98224 4.6335C8.18435 4.6335 8.34874 4.79789 8.34874 5C8.34874 5.20211 8.18435 5.3665 7.98224 5.3665C7.78013 5.3665 7.61575 5.20211 7.61575 5C7.61575 4.79789 7.78013 4.6335 7.98224 4.6335Z" fill="#333333" class="branding-main" />
</svg>