<svg width="16" height="16" viewBox="0 0 16 16" fill="none" xmlns="http://www.w3.org/2000/svg">
<circle cx="8" cy="8" r="7" fill="#FFFFFF" class="branding-accent" />
<path d="M8 0C3.62667 0 0 3.54362 0 7.94631C0 12.349 3.62667 16 8 16C12.3733 16 16 12.4564 16 7.94631C16 3.43624 12.3733 0 8 0ZM13.0133 8.26846L11.4133 9.87919C11.0933 10.2013 10.56 9.98658 10.56 9.55705V8.48322H8.53333V10.5235H9.6C10.0267 10.5235 10.24 11.0604 9.92 11.3825L8.32 12.9933C8.10667 13.2081 7.78667 13.2081 7.68 12.9933L6.08 11.3825C5.76 11.0604 5.97333 10.5235 6.4 10.5235H7.46667V8.48322H5.44V9.55705C5.44 9.98658 4.90667 10.2013 4.58667 9.87919L3.09333 8.26846C2.88 8.05369 2.88 7.73154 3.09333 7.62416L4.69333 6.01342C4.90667 5.69128 5.44 5.90604 5.44 6.33557V7.4094H7.46667V5.36913H6.4C5.97333 5.36913 5.76 4.83221 6.08 4.51007L7.68 2.89933C7.89333 2.68456 8.21333 2.68456 8.32 2.89933L9.92 4.51007C10.24 4.83221 10.0267 5.36913 9.6 5.36913H8.53333V7.4094H10.56V6.33557C10.56 5.90604 11.0933 5.69128 11.4133 6.01342L13.0133 7.62416C13.2267 7.83893 13.2267 8.16107 13.0133 8.26846Z" fill="#333333" class="branding-main" />
</svg>
