<svg width="16" height="16" viewBox="0 0 16 16" fill="none" xmlns="http://www.w3.org/2000/svg" role="img" aria-labelledby="lockIconTitle lockIconDesc" focusable="false">
  <title id="lockIconTitle">Training Data: Proprietary Dataset</title>
  <desc id="lockIconDesc">This product/component has disclosed that it mainly uses proprietary datasets as a part of its training data.</desc>
  <circle cx="8" cy="8" r="7" fill="#FFFFFF" class="branding-accent" />
  <path d="M5.65334 5.58389C5.97334 5.58389 6.18667 5.36913 6.18667 5.04698C6.18667 4.72483 5.97334 4.51007 5.65334 4.51007C5.33334 4.51007 5.12 4.72483 5.12 5.04698C5.12 5.36913 5.33334 5.58389 5.65334 5.58389Z" fill="#333333" />
  <path d="M10.56 8.37584C10.1333 8.37584 9.81333 8.69799 9.81333 9.12752V9.66443H11.3067V9.12752C11.3067 8.69799 10.9867 8.37584 10.56 8.37584Z" fill="#333333" />
  <path d="M8 0C3.62667 0 0 3.54362 0 7.94631C0 12.349 3.62667 16 8 16C12.3733 16 16 12.4564 16 7.94631C16 3.43624 12.3733 0 8 0ZM4.26667 4.2953C4.26667 4.08054 4.48 3.86577 4.69333 3.86577H11.3067C11.52 3.86577 11.7333 4.08054 11.7333 4.2953V5.69128C11.7333 5.90604 11.52 6.12081 11.3067 6.12081H4.69333C4.48 6.22819 4.26667 6.01342 4.26667 5.69128V4.2953ZM4.26667 7.19463C4.26667 6.97987 4.48 6.7651 4.69333 6.7651H11.3067C11.52 6.7651 11.7333 6.97987 11.7333 7.19463V7.73154C11.4133 7.4094 10.88 7.30201 10.1333 7.30201C9.28 7.30201 8.64 7.94631 8.64 8.80537V9.12752H4.69333C4.48 9.12752 4.26667 8.91275 4.26667 8.69799V7.19463ZM8.10667 10.094V12.1342H4.69333C4.48 12.1342 4.26667 11.9195 4.26667 11.7047V10.2013C4.26667 9.98658 4.48 9.77181 4.69333 9.77181H8.21333C8.10667 9.87919 8.10667 9.87919 8.10667 10.094ZM12.3733 11.9195C12.3733 12.2416 12.16 12.4564 11.84 12.4564H9.17333C8.85333 12.4564 8.64 12.2416 8.64 11.9195V10.3087C8.64 9.98658 8.85333 9.77181 9.17333 9.77181V9.12752C9.17333 8.37584 9.81333 7.73154 10.56 7.73154C11.3067 7.73154 11.9467 8.37584 11.9467 9.12752V9.66443C12.2667 9.66443 12.48 9.87919 12.48 10.2013V11.9195H12.3733Z" fill="#333333" />
</svg>