<svg width="16" height="16" viewBox="0 0 16 16" fill="none" xmlns="http://www.w3.org/2000/svg" role="img" aria-labelledby="title desc" focusable="false">
    <title id="title">Algorithms and code libraries: Proprietary Source Code</title>
    <desc id="desc">This product/component has disclosed that it mainly uses proprietary source code as a part of its codebase.</desc>
    
    <circle cx="8" cy="8" r="7" fill="#FFFFFF" class="branding-accent" aria-label="background circle"/>
    <path d="M11.2 8.37584C10.88 8.37584 10.6667 8.5906 10.6667 8.91275V9.34228H11.84V9.02013C11.84 8.69799 11.52 8.37584 11.2 8.37584Z" fill="#333333" class="branding-main" aria-label="lock symbol"/>
    <path d="M8 0C3.62667 0 0 3.54362 0 7.94631C0 12.349 3.62667 16 8 16C12.3733 16 16 12.4564 16 7.94631C16 3.43624 12.3733 0 8 0ZM5.65333 10.2013C5.54667 10.3087 5.44 10.3087 5.33333 10.2013L3.09333 8.05369C2.98667 7.94631 2.98667 7.83893 3.09333 7.73154L5.33333 5.58389C5.44 5.47651 5.54667 5.47651 5.54667 5.58389L6.18667 6.33557C6.4 6.55034 6.4 6.65772 6.29333 6.7651L4.90667 7.94631L6.29333 9.2349C6.4 9.34228 6.4 9.44966 6.29333 9.44966L5.65333 10.2013ZM7.57333 11.8121C7.57333 11.9195 7.46667 11.9195 7.36 11.9195L6.4 11.7047C6.29333 11.7047 6.29333 11.5973 6.29333 11.4899L8.42667 4.08054C8.42667 3.97315 8.53333 3.97315 8.64 3.97315L9.6 4.2953C9.70667 4.2953 9.70667 4.40268 9.70667 4.51007L7.57333 11.8121ZM12.6933 11.1678C12.6933 11.3825 12.48 11.5973 12.2667 11.5973H10.1333C9.92 11.5973 9.70667 11.3825 9.70667 11.1678V9.87919C9.70667 9.66443 9.92 9.44966 10.1333 9.44966V9.02013C10.1333 8.37584 10.6667 7.94631 11.2 7.94631C11.7333 7.94631 12.2667 8.37584 12.2667 9.02013V9.44966C12.48 9.44966 12.6933 9.66443 12.6933 9.87919V11.1678ZM12.9067 8.16107L12.5867 8.48322C12.48 7.83893 11.9467 7.4094 11.4133 7.4094C11.2 7.4094 10.9867 7.51678 10.7733 7.62416L9.81333 6.7651C9.70667 6.65772 9.70667 6.55034 9.81333 6.44295L10.4533 5.69128C10.56 5.58389 10.6667 5.58389 10.6667 5.69128L12.9067 7.83893C13.0133 7.94631 13.0133 8.05369 12.9067 8.16107Z" fill="#333333" class="branding-main" aria-label="code and lock pattern"/></svg>
</svg>

