<svg width="16" height="16" viewBox="0 0 16 16" fill="none" xmlns="http://www.w3.org/2000/svg" role="img" aria-labelledby="title desc" focusable="false">
  <title id="title">Decision Space: Restricted</title>
  <desc id="desc">This product/component has disclosed that the decision space is Restricted.</desc>
  <circle cx="8" cy="8" r="7" fill="#FFFFFF" class="branding-accent" />
  <path d="M8 0C3.62667 0 0 3.54362 0 7.94631C0 12.349 3.62667 16 8 16C12.3733 16 16 12.4564 16 7.94631C16 3.43624 12.3733 0 8 0ZM5.97333 12.0268C4.90667 12.0268 3.94667 11.1678 3.94667 9.98658C3.94667 8.80537 4.8 7.94631 5.97333 7.94631C7.04 7.94631 8 8.80537 8 9.98658C8 11.1678 7.14667 12.0268 5.97333 12.0268ZM8.10667 6.65772L9.6 4.18792C9.81333 3.86577 10.3467 3.86577 10.4533 4.18792L11.9467 6.7651C12.16 7.08725 11.9467 7.51678 11.52 7.51678H8.53333C8.10667 7.51678 7.89333 7.08725 8.10667 6.65772ZM12.0533 11.4899C12.0533 11.8121 11.84 12.0268 11.52 12.0268H9.06667C8.74667 12.0268 8.53333 11.8121 8.53333 11.4899V9.02013C8.53333 8.69799 8.74667 8.48322 9.06667 8.48322H11.6267C11.9467 8.48322 12.16 8.69799 12.16 9.02013V11.4899H12.0533Z" fill="#333333" class="branding-main" />
</svg>
