<svg width="16" height="16" viewBox="0 0 16 16" fill="none" xmlns="http://www.w3.org/2000/svg">
<circle cx="8" cy="8" r="7" fill="#FFFFFF" class="branding-accent" />
<path d="M5.65334 5.58389C5.97334 5.58389 6.18667 5.36913 6.18667 5.04698C6.18667 4.72483 5.97334 4.51007 5.65334 4.51007C5.33334 4.51007 5.12 4.72483 5.12 5.04698C5.12 5.36913 5.33334 5.58389 5.65334 5.58389Z" fill="#333333" class="branding-main" />
<path d="M10.88 9.55705H10.4533V11.0604H10.88V9.55705Z" fill="#333333" class="branding-main" />
<path d="M10.88 11.4899H10.4533V11.9195H10.88V11.4899Z" fill="#333333" class="branding-main" />
<path d="M8 0C3.62667 0 0 3.54362 0 7.94631C0 12.349 3.62667 16 8 16C12.3733 16 16 12.4564 16 7.94631C16 3.43624 12.3733 0 8 0ZM4.26667 4.2953C4.26667 4.08054 4.48 3.86577 4.69333 3.86577H11.3067C11.52 3.86577 11.7333 4.08054 11.7333 4.2953V5.69128C11.7333 5.90604 11.52 6.12081 11.3067 6.12081H4.69333C4.48 6.22819 4.26667 6.01342 4.26667 5.69128V4.2953ZM4.26667 7.19463C4.26667 6.97987 4.48 6.7651 4.69333 6.7651H11.3067C11.52 6.7651 11.7333 6.97987 11.7333 7.19463V8.5906C11.7333 8.69799 11.7333 8.80537 11.6267 8.91275C11.52 8.5906 11.2 8.48322 10.4533 8.48322C10.0267 8.48322 9.6 8.69799 9.49333 9.02013V9.12752H4.69333C4.48 9.12752 4.26667 8.91275 4.26667 8.69799V7.19463ZM8.53333 12.1342H4.69333C4.48 12.1342 4.26667 11.9195 4.26667 11.7047V10.2013C4.26667 9.98658 4.48 9.77181 4.69333 9.77181H9.06667L8.53333 10.8456C8.32 11.3825 8.32 11.8121 8.53333 12.1342ZM12.3733 12.0268C12.16 12.349 11.84 12.5638 11.52 12.5638H9.81333C9.49333 12.5638 9.17333 12.349 8.96 12.0268C8.74667 11.7047 8.74667 11.3825 8.96 11.0604L9.81333 9.44966C9.92 9.02013 10.24 8.80537 10.6667 8.80537C11.0933 8.80537 11.4133 9.02013 11.6267 9.34228L12.48 10.953C12.5867 11.3826 12.5867 11.7047 12.3733 12.0268Z" fill="#333333" class="branding-main" />
</svg>
