<svg width="16" height="16" viewBox="0 0 16 16" fill="none" xmlns="http://www.w3.org/2000/svg" role="img" aria-labelledby="title desc" focusable="false">
  <title id="title">Open Ethics Logo</title>
  <desc id="desc">This is Open Ethics Logo.</desc>
  <path d="M8 14.8267C11.7703 14.8267 14.8267 11.7703 14.8267 8C14.8267 4.22974 11.7703 1.17333 8 1.17333C4.22974 1.17333 1.17333 4.22974 1.17333 8C1.17333 11.7703 4.22974 14.8267 8 14.8267Z" fill="#FFFFFF" class="branding-accent_oe" />
  <path d="M8 1.70667C11.52 1.70667 14.2933 4.48 14.2933 8C14.2933 11.52 11.52 14.2933 8 14.2933C4.48 14.2933 1.70667 11.52 1.70667 8C1.70667 4.58667 4.58667 1.70667 8 1.70667ZM8 0C3.62667 0 0 3.62667 0 8C0 12.48 3.62667 16 8 16C12.3733 16 16 12.3733 16 8C16 3.62667 12.48 0 8 0Z" fill="#333333" class="branding-main" />
  <path d="M9.38667 6.08C9.28 5.86667 9.17333 5.65333 9.06667 5.54667C8.85333 5.12 8.64 4.8 8.32 4.58667C7.46667 3.62667 6.18667 3.2 4.90667 3.2C3.62667 3.2 2.34667 3.62667 1.38667 4.58667C0.533333 5.44 0 6.72 0 8C0 8.42667 0.213333 9.06667 0.533333 9.38667C0.853333 9.70667 1.28 10.1333 1.81333 10.1333H6.82667C8.32 10.1333 9.6 8.74667 9.6 7.14667C9.49333 6.82667 9.49333 6.29333 9.38667 6.08ZM6.82667 8H4.26667H1.70667C1.70667 6.93333 3.09333 4.90667 4.8 4.90667C4.90667 4.90667 4.90667 4.90667 5.01333 4.90667C6.08 5.01333 7.04 5.54667 7.57333 6.4C7.68 6.50667 7.68 6.61333 7.68 6.72C7.68 6.82667 7.68 6.93333 7.68 7.04C7.78667 7.57333 7.36 8 6.82667 8Z" fill="#333333" class="branding-main" />
</svg>
